# xmcd CD database file
#
# Track frame offsets:
#	150
#	9329
#	34149
#	70790
#	103119
#	149659
#	198679
#	249802
#	283357
#	324544
#	344268
#
# Disc length: 4656 seconds
#
# Revision: 0
# Processed by: cddbd v1.5.1PL2 Copyright (c) Steve Scherf et al.
# Submitted via: CDex 1.51
#
DISCID=a7122e0b
DTITLE=Roland Guerin - Groove, Swing and Harmony
DYEAR=2003
DGENRE=Jazz
TTITLE0=Cherokee "Long"
TTITLE1=Growing
TTITLE2=When It's Time, It's Time
TTITLE3=People Make The World Go Round
TTITLE4=Fall
TTITLE5=My Romance
TTITLE6=Alone Together
TTITLE7=Can't Hide Love
TTITLE8=Deep Sleep
TTITLE9=Turn Around
TTITLE10=Cherokee "Short"
EXTD=YEAR: 2003
EXTT0=
EXTT1=
EXTT2=
EXTT3=
EXTT4=
EXTT5=
EXTT6=
EXTT7=
EXTT8=
EXTT9=
EXTT10=
PLAYORDER=
